<svg xmlns="http://www.w3.org/2000/svg" xmlns:xlink="http://www.w3.org/1999/xlink" version="1.2" baseProfile="tiny" x="0px" y="0px" viewBox="0 0 100 125" xml:space="preserve"><path d="M89.999,33.841l-17.321-10c-1.228-0.709-2.592-1.146-3.994-1.288C66.929,19.472,63.629,17.5,60,17.5H40  c-3.629,0-6.929,1.972-8.684,5.053c-1.402,0.142-2.767,0.579-3.994,1.288l-17.321,10c-4.775,2.758-6.417,8.886-3.66,13.66  l17.5,30.312c1.781,3.085,5.103,5.001,8.667,5.001c1.747,0,3.474-0.464,4.993-1.341L50,74.256l12.499,7.217  c1.52,0.877,3.246,1.341,4.992,1.341c0.001,0,0.001,0,0.001,0c3.564,0,6.886-1.916,8.667-5.001l17.5-30.312  C96.416,42.727,94.774,36.599,89.999,33.841z M33.751,74.977c-0.386,0.223-0.805,0.336-1.243,0.336c-0.908,0-1.72-0.468-2.172-1.251  l-17.5-30.311c-0.451-0.78-0.35-1.523-0.25-1.897c0.1-0.374,0.385-1.068,1.165-1.518l17.32-10C31.458,30.113,31.876,30,32.315,30  c0.064,0,0.122,0.019,0.185,0.024V62.5c0,4.142,3.358,7.5,7.5,7.5h2.372L33.751,74.977z M43.513,65H40c-1.378,0-2.5-1.122-2.5-2.5  v-35c0-1.379,1.122-2.5,2.5-2.5h20c1.378,0,2.5,1.121,2.5,2.5v0.123c-0.298,0.348-0.579,0.716-0.817,1.128l-17.5,30.311  C43.101,60.936,42.927,63.081,43.513,65z M87.664,43.751l-17.5,30.311c-0.452,0.784-1.264,1.251-2.172,1.251  c-0.438,0-0.857-0.113-1.243-0.336l-17.32-10c-1.194-0.689-1.604-2.221-0.915-3.415l17.5-30.311C66.465,30.468,67.278,30,68.186,30  c0.438,0,0.856,0.113,1.243,0.336l17.32,10C87.943,41.025,88.353,42.557,87.664,43.751z"/><polygon points="17.166,41.251 15.001,42.501 17.501,46.832 21.831,44.332 19.331,40.001 "/><rect x="40" y="27.5" width="5" height="5"/><polygon points="70.009,39.332 72.509,35.001 68.179,32.501 65.679,36.832 67.843,38.081 "/><polygon points="63.669,70.312 65.834,71.562 67.999,72.812 70.499,68.482 66.169,65.982 "/><path d="M70.231,50.409l-1,0.268l-0.268-1c-0.358-1.335-1.73-2.12-3.063-1.768c-1.333,0.357-2.125,1.729-1.768,3.062l1.563,5.83  l5.83-1.562c1.333-0.357,2.125-1.729,1.768-3.062C72.936,50.843,71.563,50.056,70.231,50.409z"/><text x="0" y="115" fill="#000000" font-size="5px" font-weight="bold" font-family="'Helvetica Neue', Helvetica, Arial-Unicode, Arial, Sans-serif"></text><text x="0" y="120" fill="#000000" font-size="5px" font-weight="bold" font-family="'Helvetica Neue', Helvetica, Arial-Unicode, Arial, Sans-serif"></text></svg>