<svg xmlns="http://www.w3.org/2000/svg" xmlns:xlink="http://www.w3.org/1999/xlink" xmlns:serif="http://www.serif.com/" viewBox="0 0 32 40" version="1.1" xml:space="preserve" style="" x="0px" y="0px" fill-rule="evenodd" clip-rule="evenodd" stroke-linejoin="round" stroke-miterlimit="2"><g transform="matrix(1,0,0,1,-259,-259)"><path d="M285.026,275C285.042,277.35 284.924,279.444 284.517,281.177C284.083,283.025 283.318,284.486 282.118,285.487C280.992,286.426 279.468,286.981 277.395,287.003L275.803,288.595C275.632,288.826 275.367,288.975 275.075,288.997L274.95,288.999C274.642,288.989 274.36,288.837 274.181,288.595L272.589,287.003C270.516,286.981 268.992,286.426 267.866,285.487C266.666,284.486 265.901,283.025 265.467,281.177C265.06,279.444 264.942,277.35 264.958,275L285.026,275ZM269.006,279.887C268.806,281.646 269.619,283.019 271.587,283.911C272.09,284.139 272.683,283.915 272.911,283.413C273.139,282.91 272.915,282.317 272.413,282.089C271.411,281.635 270.891,281.009 270.994,280.113C271.056,279.565 270.662,279.069 270.113,279.006C269.565,278.944 269.069,279.338 269.006,279.887ZM266.414,274L269.586,274L270.586,273L269,271.414L266.414,274ZM274.414,274L275.586,274L276.586,273L275,271.414L273.414,273L274.414,274ZM283.586,274L281,271.414L279.414,273L280.414,274L283.586,274ZM285.23,267.184L282.414,270L286.351,273.937C286.73,273.795 287,273.429 287,273L287,271C287,269.674 286.473,268.402 285.536,267.464C285.437,267.366 285.336,267.273 285.23,267.184ZM267.586,270L264.77,267.184C264.664,267.273 264.563,267.366 264.464,267.464C263.527,268.402 263,269.674 263,271C263,272.102 263,273 263,273C263,273.429 263.27,273.795 263.649,273.937L267.586,270ZM270.414,270L272,271.586L273.586,270L272,268.414L270.414,270ZM276.414,270L278,271.586L279.586,270L278,268.414L276.414,270ZM269.586,266L268,266C267.526,266 267.059,266.067 266.611,266.197L269,268.586L270.586,267L269.586,266ZM280.414,266L279.414,267L281,268.586L283.389,266.197C282.941,266.067 282.474,266 282,266L280.414,266ZM275.586,266L274.414,266L273.414,267L275,268.586L276.586,267L275.586,266ZM273.287,265L278.858,265C279.399,264.445 280.121,264.009 281.011,264C281.413,263.996 281.774,263.75 281.926,263.378C282.078,263.005 281.992,262.578 281.707,262.293L279.707,261.293C279.514,261.1 279.25,260.994 278.977,261C276.081,261.067 274.257,262.493 273.287,265Z"/></g><text x="0" y="47" fill="#000000" font-size="5px" font-weight="bold" font-family="'Helvetica Neue', Helvetica, Arial-Unicode, Arial, Sans-serif">Created by Utari Nuraeni</text><text x="0" y="52" fill="#000000" font-size="5px" font-weight="bold" font-family="'Helvetica Neue', Helvetica, Arial-Unicode, Arial, Sans-serif">from the Noun Project</text></svg>