<svg xmlns="http://www.w3.org/2000/svg" xmlns:xlink="http://www.w3.org/1999/xlink" version="1.1" x="0px" y="0px" viewBox="0 0 100 125" enable-background="new 0 0 100 100" xml:space="preserve"><path d="M14.01,55.28c0-1.109-0.331-2.181-0.956-3.097c-1.03-1.505-2.732-2.404-4.554-2.404c-3.033,0-5.5,2.467-5.5,5.5  c0,3.038,2.467,5.51,5.5,5.51c2.73,0,5.02-1.954,5.442-4.646C13.987,55.846,14.01,55.561,14.01,55.28z"/><path d="M65.61,20.55c0,0.751,0.145,1.475,0.431,2.15c0.867,2.041,2.861,3.36,5.079,3.36c3.032,0,5.5-2.472,5.5-5.51  c0-3.033-2.468-5.5-5.5-5.5c-2.446,0-4.565,1.568-5.273,3.901C65.69,19.473,65.61,20.012,65.61,20.55z"/><path d="M91.5,49.78c-1.821,0-3.524,0.899-4.555,2.405C86.32,53.1,85.99,54.171,85.99,55.28c0,0.28,0.023,0.572,0.068,0.867  c0.422,2.689,2.71,4.643,5.441,4.643c3.032,0,5.5-2.472,5.5-5.51C97,52.247,94.532,49.78,91.5,49.78z"/><path d="M75.39,82.12c0-1.439-1.171-2.61-2.609-2.61H27.22c-1.439,0-2.61,1.171-2.61,2.61v0.22c0,1.439,1.171,2.61,2.61,2.61h45.56  c1.438,0,2.609-1.171,2.609-2.61V82.12z"/><path d="M35.419,47.903c7.678,3.543,12.607,12.38,14.587,21.546c1.327-6.069,3.899-11.752,7.285-15.805  C52.738,38.4,57.678,27.676,63.884,22.7l0.058,0.072c-0.22-0.713-0.331-1.458-0.331-2.222c0-0.343,0.028-0.687,0.076-1.027  c-8.033-0.876-13.918,2.488-17.484,5.551C39.801,30.574,35.621,39.472,35.419,47.903z"/><path d="M59.154,54.527c-4.77,5.453-7.904,14.379-8.132,22.982h17.186c0.391-10.06,6.614-18.725,15.805-21.937  c-0.003-0.097-0.022-0.198-0.022-0.293c0-1.149,0.263-2.268,0.762-3.287C71.799,44.741,63.694,49.322,59.154,54.527z"/><path d="M15.248,51.993c0.499,1.02,0.762,2.138,0.762,3.287c0,0.096-0.019,0.197-0.023,0.293  c9.191,3.212,15.415,11.877,15.805,21.937h17.181c-0.29-11.133-5.404-24.082-14.956-28.046  C28.585,47.196,22.273,48.054,15.248,51.993z"/><text x="0" y="115" fill="#000000" font-size="5px" font-weight="bold" font-family="'Helvetica Neue', Helvetica, Arial-Unicode, Arial, Sans-serif"></text><text x="0" y="120" fill="#000000" font-size="5px" font-weight="bold" font-family="'Helvetica Neue', Helvetica, Arial-Unicode, Arial, Sans-serif"></text></svg>